<svg id="Layer_1" data-name="Layer 1" xmlns="http://www.w3.org/2000/svg" viewBox="0 0 326.9 288.23"><defs><style>.cls-1{isolation:isolate;}.cls-2{fill:#eda700;}.cls-3{fill:#ffb80d;}.cls-4{fill:#ffcc57;}.cls-5,.cls-6{fill:none;stroke:#ffe3a3;stroke-linecap:round;stroke-width:1.01px;}.cls-5{stroke-linejoin:round;}.cls-6{stroke-miterlimit:10;}.cls-7,.cls-8{fill:#fff;}.cls-7{opacity:0.4;}</style></defs><title>icon_bitcoin</title><g class="cls-1"><path class="cls-2" d="M239.08,109.83c.11,38.38-26.88,85.12-60.28,104.41-21.87,12.63-41.07,10.35-51.74-3.51-5.63-7.3-8.9-17.82-8.93-31.07C118,141.28,145,94.53,178.41,75.25c19.25-11.12,36.43-10.68,47.55-1C234.14,81.41,239,93.56,239.08,109.83Z"/><path class="cls-3" d="M234.87,105.33c.11,38.39-26.88,85.13-60.28,104.42-19.23,11.11-36.41,10.68-47.53,1-5.63-7.3-8.9-17.82-8.93-31.07C118,141.28,145,94.53,178.41,75.25c19.25-11.12,36.43-10.68,47.55-1C231.58,81.58,234.84,92.1,234.87,105.33Z"/><path class="cls-4" d="M221.44,71,209.16,63.9c-11-6.39-26.22-5.49-43,4.21l12.28,7.14C195.21,65.54,210.44,64.64,221.44,71Z"/><path class="cls-3" d="M233.68,50l-.1,0c-.3-.18-.62-.35-.94-.52s-.59-.32-.89-.47l-.08,0c-.28-.14-.55-.28-.82-.4l-.19-.09c-.31-.15-.62-.29-.94-.41s-.66-.29-1-.42-.67-.27-1-.39c-.71-.26-1.43-.49-2.15-.71l-.73-.21-.4-.11c-.3-.09-.6-.16-.91-.23h-.06l-1-.23c-.84-.19-1.7-.34-2.56-.46-.37-.06-.73-.11-1.1-.15s-.76-.1-1.14-.13l-.75-.07-.29,0-.83-.05-.85,0c-.72,0-1.46,0-2.2,0a56.67,56.67,0,0,0-13.93,2,81.07,81.07,0,0,0-17.17,6.86c-1.1.57-2.19,1.18-3.3,1.82l-12.28-7.13c.91-.53,1.82-1,2.73-1.52a82.81,82.81,0,0,1,17.07-7,58.15,58.15,0,0,1,13.27-2.12,40.72,40.72,0,0,1,22.26,5.21Z"/><path class="cls-4" d="M123.49,211.32l12.28,7.13c-10.86-6.31-17.59-19.72-17.64-38.79C118,141.28,145,94.53,178.41,75.25l-12.28-7.14c-33.41,19.29-60.39,66-60.28,104.41C105.9,191.59,112.63,205,123.49,211.32Z"/><path class="cls-4" d="M219.91,45.22c-19.69-3.13-41.56,6.94-61.12,24.35-35.2,31.33-63,86.37-57.34,130.61,0,0,.22,1.84.24,1.88,5.58,42.11,40.94,54.54,80,30.33,41.62-25.75,74.79-84.29,74.66-132.54C256.26,62.54,237.18,47.65,219.91,45.22Zm-41.11,169c-33.4,19.28-60.57,3.81-60.67-34.58C118,140.3,146.57,91.32,182.31,73.13,213.9,57.21,239,73,239.08,109.82,239.19,148.56,211.83,195.23,178.8,214.24Z"/><path class="cls-3" d="M178.35,55.39a122.8,122.8,0,0,0-19.43,14q-1.62,1.41-3.22,2.91a160.79,160.79,0,0,0-14.39,15.25q-3.9,4.69-7.51,9.7l-1.13,1.59c-.42.59-.82,1.17-1.23,1.76-18.67,27.12-30.68,59.93-30.6,89,.07,24.52,8.73,41.77,22.68,49.88l-12.27-7.13c-14-8.11-22.62-25.36-22.69-49.88-.08-29.27,12.1-62.33,31-89.56.44-.64.9-1.28,1.35-1.91s.72-1,1.1-1.53q4-5.44,8.27-10.52A160.83,160.83,0,0,1,143,65.64c1.14-1.07,2.28-2.11,3.44-3.13a124.91,124.91,0,0,1,19.68-14.25Z"/><path class="cls-2" d="M123.52,239.51l-12.27-7.13c-14-8.11-22.62-25.36-22.69-49.88,0-1.14,0-2.29,0-3.44L101,183.18q-.18,3.25-.18,6.45C100.91,214.15,109.57,231.4,123.52,239.51Z"/></g><g class="cls-1"><path class="cls-2" d="M186,189.19l-8.82-5.12c0-4.41,0-8.81,0-13.35l8.82,5.12C186,180.39,186,184.78,186,189.19Z"/><path class="cls-2" d="M189.93,138.77l8.82,5.12c1.13.66,1.76,2,1.79,4.15,0,3.29-1.48,6.38-4,9.25l-8.82-5.13c2.5-2.87,4-6,4-9.25C191.69,140.78,191.06,139.43,189.93,138.77Z"/><path class="cls-2" d="M202.84,125.35l8.83,5.13a7.69,7.69,0,0,0-5.45-.51l-1.65.36-8.82-5.13,1.65-.35A7.61,7.61,0,0,1,202.84,125.35Z"/><path class="cls-2" d="M173,196.72l-8.83-5.13c0-4.54,0-9,0-13.69L173,183C173,187.71,173,192.17,173,196.72Z"/><path class="cls-2" d="M180.37,169l-8.82-5.13,3.21-1.82a56.13,56.13,0,0,0,11.9-8.69c.37-.36.73-.76,1.08-1.17l8.82,5.13c-.35.41-.71.81-1.08,1.17a56.23,56.23,0,0,1-11.9,8.69Z"/><path class="cls-2" d="M158.45,191.42l-8.83-5.13c.49-3.7.93-7.12,1.4-10.67l8.82,5.13C159.38,184.3,158.93,187.72,158.45,191.42Z"/><path class="cls-2" d="M186.61,115.19l8.82,5.13c1.09.63,1.65,2,1.66,4.05,0,3.07-1.33,5.88-3.63,8.51-3,3.43-6.26,5.41-9.5,7.43l-1.38.82-2.31,1.31-8.82-5.12,2.31-1.32,1.38-.82c3.24-2,6.5-4,9.5-7.43,2.3-2.63,3.64-5.44,3.62-8.51C188.26,117.17,187.7,115.83,186.61,115.19Z"/><path class="cls-2" d="M198.5,101.42l8.83,5.12a6.83,6.83,0,0,0-4.06-.75,21.63,21.63,0,0,0-4.62,1c-1.86.57-3.75,1.39-5.74,2.15l-8.82-5.13c2-.76,3.88-1.58,5.73-2.15a21.84,21.84,0,0,1,4.63-1A6.81,6.81,0,0,1,198.5,101.42Z"/><path class="cls-2" d="M179.88,116.13,171.06,111l5.81-3.36,8.83,5.12Z"/><path class="cls-2" d="M157.83,129.18l8.83,5.12c.67.39,1,1.3,1,2.66q.08,17.76.11,35.53a5.65,5.65,0,0,1-3,5.38c-.62.39-1.24.76-1.87,1.12-1,.59-2,1.15-3.09,1.76L151,175.62l3.09-1.75c.63-.37,1.25-.74,1.87-1.13a5.64,5.64,0,0,0,3-5.37q0-17.77-.1-35.54C158.88,130.47,158.5,129.57,157.83,129.18Z"/><path class="cls-2" d="M185.66,99.72l-8.82-5.12,7.21-4.17,8.82,5.13Z"/><path class="cls-2" d="M185.7,112.77l-8.83-5.12c0-4.35,0-8.63,0-13.05l8.82,5.12C185.67,104.15,185.68,108.43,185.7,112.77Z"/><path class="cls-2" d="M172.77,120.7,164,115.58l0-13.57,8.82,5.13C172.75,111.66,172.76,116.1,172.77,120.7Z"/><path class="cls-2" d="M172.73,107.14,163.91,102l7.11-4.1,8.82,5.12Z"/><path class="cls-2" d="M158.38,137.84l-8.83-5.13,0-8.81,8.82,5.13C158.36,132.06,158.37,134.91,158.38,137.84Z"/><path class="cls-4" d="M214.76,137a30.93,30.93,0,0,1-9.69,25.1c-2.31,2.24-4.75,4.14-7.16,6.06-1.53,1.22-3.11,2.2-4.78,3.36l0,13.59L186,189.19l0-13.35-5.84,3.37,0,13.37L173,196.72l0-13.7-14.54,8.4c.48-3.7.93-7.12,1.39-10.67,1.06-.61,2.09-1.17,3.09-1.76.63-.36,1.25-.73,1.87-1.12a5.65,5.65,0,0,0,3-5.38q0-17.76-.11-35.53c0-2.67-1.42-3.57-3.74-2.33-.7.37-1.39.77-2.09,1.17l-3.49,2,0-8.81,14.42-8.33,0-13.56,7.11-4.11,0,13.1,5.82-3.36,0-13,7.21-4.16,0,13.34c2-.76,3.88-1.58,5.74-2.15a21.63,21.63,0,0,1,4.62-1c4.67-.37,7.07,2.43,7.32,8.1.23,5.22-1.36,10.45-5.5,15.64-.15.18-.27.41-.52.8l1.65-.36C211.27,128.94,214.32,131,214.76,137Zm-18.2,20.32c2.5-2.87,4-6,4-9.25s-1.56-4.77-4.17-4.61c-3.46.2-7,2-10.68,4.07-1.78,1-3.57,2.14-5.37,3.18l.05,18.29,3.21-1.82a56.23,56.23,0,0,0,11.9-8.69c.37-.36.73-.76,1.08-1.17m-16.33-31.45,0,16.6,2.31-1.31,1.38-.82c3.24-2,6.5-4,9.5-7.43,2.3-2.63,3.64-5.44,3.63-8.51s-1.27-4.58-3.68-4.47c-2.81.13-5.71,1.51-8.67,3.22-1.49.86-3,1.81-4.51,2.72"/><path class="cls-2" d="M158.35,129l-8.82-5.13L164,115.58l8.82,5.12Z"/></g><path class="cls-5" d="M113.67,132.59c-.56,1.27-1.1,2.55-1.63,3.82"/><path class="cls-5" d="M122.08,115.84q-3.72,6.59-6.91,13.44"/><path class="cls-6" d="M127,107.56l-.66,1"/><path class="cls-6" d="M155.45,72.67a181.53,181.53,0,0,0-27.29,33.12"/><path class="cls-6" d="M212.48,44.65c-.59,0-1.19,0-1.79,0"/><path class="cls-6" d="M160.65,68l-.93.81"/><path class="cls-6" d="M204.91,45.24c-14.21,2.14-28.94,9.93-42.68,21.4"/><path class="cls-6" d="M107.55,222.07a45.32,45.32,0,0,0,3.47,5.85"/><path class="cls-6" d="M112,136.41c-8.8,21.33-13.15,43.66-10.59,63.77,0,0,.22,1.84.24,1.88q.41,3,1,5.9"/><path class="cls-7" d="M129.49,79.91l8.31,5.4a3.84,3.84,0,0,1,.95,5.58L135,95.72a2.13,2.13,0,0,1-2.87.48L122,89.5Z"/><path class="cls-7" d="M158.92,69.43c-.58.51-1.16,1-1.73,1.54a2.91,2.91,0,0,1-3.3.42L143,65.64c1.14-1.07,2.28-2.11,3.44-3.13Z"/><path class="cls-7" d="M212.75,44.74A55,55,0,0,0,201,46.18a6.06,6.06,0,0,1-4.18-.56l-10.92-5.87a58.15,58.15,0,0,1,13.27-2.12Z"/><path class="cls-7" d="M131.87,100l-.43.63-11.89-7.7c.44-.64.9-1.28,1.35-1.91l10.61,7.07A1.36,1.36,0,0,1,131.87,100Z"/><path class="cls-8" d="M163.24,111.29c-16,6.67-23.15,15.08-27.83,28.39a3.49,3.49,0,0,1-6.48.42c-6.23-14.42-14.89-22-28.49-27a3.47,3.47,0,0,1,0-6.44c14.35-6.17,20.45-14.73,26.16-29.28a3.49,3.49,0,0,1,6.44-.26c6.35,14.77,16.68,22.45,30.31,27.77A3.47,3.47,0,0,1,163.24,111.29Z"/><path class="cls-8" d="M164.81,47.68c-7.14,3-10.33,6.72-12.41,12.66a1.56,1.56,0,0,1-2.89.18c-2.78-6.43-6.64-9.82-12.7-12.05a1.55,1.55,0,0,1,0-2.87c6.4-2.75,9.12-6.57,11.67-13.06a1.55,1.55,0,0,1,2.87-.11c2.83,6.58,7.44,10,13.51,12.38A1.55,1.55,0,0,1,164.81,47.68Z"/></svg>