<svg id="Layer_1" data-name="Layer 1" xmlns="http://www.w3.org/2000/svg" viewBox="0 0 326.9 288.23"><defs><style>.cls-1{fill:#e7eced;}.cls-2,.cls-3{fill:#c7cac7;}.cls-3{font-size:45.38px;font-family:NexaBold, Nexa Bold;}.cls-4{letter-spacing:0.02em;}</style></defs><title>no-coins</title><path class="cls-1" d="M197,234.49v9.57c.07,6.16-4,12.32-12.07,17-16.17,9.33-42.46,9.28-58.73-.11C118,256.24,114,250.06,114,243.9v-9.52h2c1.93-3.5,5.3-6.78,10.1-9.55,16.17-9.34,42.46-9.29,58.73.1,4.81,2.78,8.21,6.07,10.19,9.56Z"/><ellipse class="cls-2" cx="155.49" cy="234.38" rx="23.98" ry="41.53" transform="translate(-79.72 388.6) rotate(-89.69)"/><path class="cls-1" d="M197,222v9.57c.07,6.16-4,12.32-12.07,17-16.17,9.33-42.46,9.28-58.73-.11C118,243.74,114,237.56,114,231.39v-9.51h2c1.93-3.5,5.3-6.79,10.1-9.56,16.17-9.33,42.46-9.28,58.73.11,4.81,2.78,8.21,6.07,10.19,9.56Z"/><ellipse class="cls-2" cx="155.49" cy="221.88" rx="23.98" ry="41.53" transform="translate(-67.22 376.16) rotate(-89.69)"/><path class="cls-1" d="M101.24,231.21v9.46c.07,6.1-3.91,12.19-11.94,16.83-16,9.23-42,9.18-58.09-.11-8.09-4.67-12.14-10.78-12.13-16.88v-9.42h2c1.91-3.45,5.24-6.71,10-9.45,16-9.23,42-9.18,58.09.11,4.77,2.75,8.13,6,10.08,9.46Z"/><ellipse class="cls-2" cx="60.16" cy="231.09" rx="23.72" ry="41.08" transform="translate(-171.25 290) rotate(-89.69)"/><path class="cls-1" d="M100.26,216.87v9.57c.07,6.16-4,12.32-12.07,17-16.17,9.34-42.46,9.29-58.73-.1-8.17-4.72-12.26-10.9-12.25-17.07v-9.52h2c1.93-3.49,5.3-6.78,10.1-9.55,16.17-9.33,42.46-9.29,58.73.11,4.81,2.78,8.21,6.06,10.19,9.56Z"/><ellipse class="cls-2" cx="58.73" cy="216.75" rx="23.98" ry="41.53" transform="matrix(0.01, -1, 1, 0.01, -158.33, 274.31)"/><path class="cls-1" d="M81.19,224l-3.4,2-5.58-3.22-2.53,1.47c-.2.11,0,.18.12.25l5.3,3.06-3.39,2L66,226.22l-6.75,3.9c-.08,0-.11,0-.12-.05L56,227.53c-.16-.12,0-.18.1-.25l2.07-1.2c1-.55.94-1.09,0-1.64L43.5,216A3.72,3.72,0,0,0,40,215.9c-.59.31-1.14.63-1.7.94l-1,.59-3.62-2.09,6.77-3.91-5.58-3.22,3.4-2,5.2,3a.42.42,0,0,0,.53,0c.57-.35,1.15-.69,1.73-1l.64-.37-.08-.09-5.33-3.08,3.4-2,.33.22,4.71,2.72c.54.31.54.3,1.15,0a25.13,25.13,0,0,1,5.47-1.9,12.59,12.59,0,0,1,5.76,0,11.15,11.15,0,0,1,3.5,1.55c1.67,1.12,2.22,2.39,1.59,3.82,0,.09-.09.19-.15.32l.26-.05c.8-.21,1.58-.47,2.41-.62a11.4,11.4,0,0,1,6,.31,11.85,11.85,0,0,1,4.47,2.67,3.64,3.64,0,0,1,1.36,3.06,5.73,5.73,0,0,1-2.22,3.38c-.94.81-2,1.55-3.11,2.32-.23.16-.22.25,0,.39.47.25.91.52,1.36.78Zm-15.74-2.13c1-.6,2.07-1.16,3-1.75a12.84,12.84,0,0,0,3.3-2.67,1.94,1.94,0,0,0,.56-2c-.6-1.39-3-2.22-5.37-1.86a14,14,0,0,0-4.56,1.49c-1.4.73-2.72,1.51-4.08,2.26-.31.17-.3.26,0,.44,2.27,1.29,4.52,2.6,6.77,3.9Zm-14.32-8.27,3.15,1.82a.43.43,0,0,0,.51,0,21.79,21.79,0,0,0,4.66-3.18,2.1,2.1,0,0,0,.76-2c-.31-1.11-2.41-2-4.35-1.91a10.21,10.21,0,0,0-4.07,1.1c-1.32.65-2.52,1.37-3.79,2.06-.24.13-.16.22,0,.33Z"/><path class="cls-1" d="M309.69,238.22v9.57c.07,6.16-3.95,12.32-12.07,17-16.16,9.33-42.46,9.28-58.73-.11-8.17-4.72-12.26-10.9-12.25-17.07v-9.51h2c1.94-3.5,5.3-6.78,10.1-9.55,16.17-9.34,42.46-9.29,58.73.1,4.82,2.78,8.21,6.07,10.19,9.56Z"/><ellipse class="cls-2" cx="268.17" cy="238.11" rx="23.98" ry="41.53" transform="translate(28.61 504.98) rotate(-89.69)"/><path class="cls-1" d="M290.62,245.38l-3.39,2-5.58-3.22-2.54,1.46c-.2.12,0,.19.12.26l5.3,3-3.39,2-5.68-3.28-6.75,3.9-.12,0c-1-.85-2.09-1.7-3.15-2.54-.16-.13,0-.18.1-.26l2.08-1.2c.95-.55.94-1.08,0-1.64l-14.66-8.46a3.67,3.67,0,0,0-3.52-.07c-.58.3-1.14.62-1.7.94l-1,.58-3.62-2.09,6.77-3.91-5.57-3.22,3.39-2,5.2,3a.45.45,0,0,0,.54,0c.56-.35,1.14-.69,1.72-1l.64-.37c-.06-.06-.06-.08-.08-.09l-5.33-3.08,3.4-2,.34.21L258.8,227c.54.31.53.31,1.14,0a25,25,0,0,1,5.47-1.9,12.64,12.64,0,0,1,5.77,0,11.26,11.26,0,0,1,3.5,1.56c1.67,1.11,2.21,2.38,1.58,3.81,0,.1-.09.19-.15.32l.26,0c.8-.21,1.58-.46,2.41-.62a11.66,11.66,0,0,1,6,.31,11.88,11.88,0,0,1,4.46,2.67,3.65,3.65,0,0,1,1.36,3.06,5.68,5.68,0,0,1-2.21,3.38c-1,.81-2.05,1.56-3.12,2.32-.22.17-.21.26,0,.39.47.25.91.52,1.36.78Zm-15.74-2.13c1.05-.61,2.07-1.17,3-1.76a12.47,12.47,0,0,0,3.3-2.67,1.94,1.94,0,0,0,.57-2c-.61-1.38-3-2.21-5.38-1.86a14.22,14.22,0,0,0-4.56,1.49c-1.39.73-2.71,1.52-4.08,2.27-.3.16-.3.26,0,.43l6.77,3.9ZM260.57,235l3.14,1.82a.45.45,0,0,0,.51,0,21,21,0,0,0,4.66-3.18,2.1,2.1,0,0,0,.76-2c-.31-1.1-2.41-2-4.35-1.9a10.2,10.2,0,0,0-4.06,1.09c-1.32.65-2.53,1.38-3.79,2.07-.25.13-.17.21,0,.33Z"/><path class="cls-1" d="M213,187.89c9.91-5.72,17.78-5.33,24.48-.62l6.65,4.36c4.61,3.6,7.38,10.08,7.38,18.9,0,19.85-14,44-31.32,54-9.54,5.51-18.09,5.55-23.83,1.14l-.07-.05c-8.11-6.29-12.59-5.24-14.31-18.89C179.39,226.18,194.28,198.71,213,187.89Z"/><ellipse class="cls-2" cx="220.2" cy="228.62" rx="44.16" ry="25.49" transform="translate(-88.3 303.33) rotate(-59.69)"/><path class="cls-1" d="M237.47,225.37a16.9,16.9,0,0,1-5.3,13.73c-1.26,1.23-2.6,2.26-3.91,3.32-.84.66-1.7,1.2-2.62,1.83l0,7.44-3.9,2.25,0-7.3-3.2,1.84,0,7.31-3.92,2.27,0-7.5-8,4.6c.27-2,.51-3.9.76-5.84l1.7-1c.34-.2.68-.4,1-.62a3.06,3.06,0,0,0,1.64-2.94q0-9.72-.05-19.44c0-1.46-.78-2-2-1.28l-1.15.65c-.62.35-1.25.73-1.91,1.11V221l7.89-4.56,0-7.42,3.89-2.25,0,7.17,3.18-1.84,0-7.14,3.95-2.28,0,7.3c1.09-.41,2.12-.86,3.14-1.17a11.43,11.43,0,0,1,2.53-.53c2.55-.2,3.87,1.33,4,4.44a12.49,12.49,0,0,1-3,8.55c-.08.1-.15.23-.29.44l.91-.2C235.57,221,237.24,222.11,237.47,225.37Zm-9.95,11.11a7.69,7.69,0,0,0,2.18-5.06c0-1.82-.86-2.61-2.29-2.52a14.05,14.05,0,0,0-5.84,2.23c-1,.56-2,1.16-2.94,1.73l0,10,1.75-1a30.9,30.9,0,0,0,6.52-4.76c.2-.2.4-.41.59-.64m-8.94-17.21,0,9.09,1.26-.72.75-.45a21.27,21.27,0,0,0,5.2-4.06,7.05,7.05,0,0,0,2-4.66c0-1.7-.7-2.51-2-2.44a11.08,11.08,0,0,0-4.74,1.75c-.82.48-1.64,1-2.47,1.49"/><text class="cls-3" transform="translate(58.79 118.59)">No <tspan class="cls-4" x="67.57" y="0">C</tspan><tspan x="98.47" y="0">oins!</tspan></text></svg>