<svg id="Layer_1" data-name="Layer 1" xmlns="http://www.w3.org/2000/svg" xmlns:xlink="http://www.w3.org/1999/xlink" viewBox="0 0 266.09 234.61"><defs><style>.cls-1,.cls-22,.cls-23{fill:none;}.cls-2{fill:#000014;opacity:0.1;}.cls-3{fill:url(#linear-gradient);}.cls-4{fill:url(#linear-gradient-2);}.cls-5{fill:url(#linear-gradient-3);}.cls-6{fill:url(#linear-gradient-4);}.cls-7{fill:url(#linear-gradient-5);}.cls-8{fill:url(#linear-gradient-6);}.cls-9{fill:url(#linear-gradient-7);}.cls-10{fill:url(#linear-gradient-8);}.cls-11{fill:url(#linear-gradient-9);}.cls-12{fill:url(#linear-gradient-10);}.cls-13{fill:url(#linear-gradient-11);}.cls-14{fill:url(#linear-gradient-12);}.cls-15{fill:#421580;}.cls-16{fill:url(#linear-gradient-13);}.cls-17{clip-path:url(#clip-path);}.cls-18{isolation:isolate;}.cls-19{fill:#eda700;}.cls-20{fill:#ffb80d;}.cls-21{fill:#ffcc57;}.cls-22,.cls-23{stroke:#ffe3a3;stroke-linecap:round;stroke-width:0.41px;}.cls-22{stroke-linejoin:round;}.cls-23{stroke-miterlimit:10;}.cls-24,.cls-25{fill:#fff;}.cls-24{opacity:0.4;}</style><linearGradient id="linear-gradient" x1="196.6" y1="71.42" x2="221.11" y2="71.42" gradientUnits="userSpaceOnUse"><stop offset="0" stop-color="#d47afe"/><stop offset="1" stop-color="#fb83fb"/></linearGradient><linearGradient id="linear-gradient-2" x1="102.71" y1="181.73" x2="144.96" y2="181.73" xlink:href="#linear-gradient"/><linearGradient id="linear-gradient-3" x1="55.84" y1="155.63" x2="95.07" y2="155.63" xlink:href="#linear-gradient"/><linearGradient id="linear-gradient-4" x1="168.76" y1="136.68" x2="210.4" y2="136.68" xlink:href="#linear-gradient"/><linearGradient id="linear-gradient-5" x1="56.91" y1="114.45" x2="211.85" y2="114.45" gradientUnits="userSpaceOnUse"><stop offset="0" stop-color="#fed0fc"/><stop offset="1" stop-color="#f199fb"/></linearGradient><linearGradient id="linear-gradient-6" x1="62.14" y1="79.97" x2="87.66" y2="79.97" xlink:href="#linear-gradient"/><linearGradient id="linear-gradient-7" x1="105.17" y1="102.21" x2="134.85" y2="102.21" xlink:href="#linear-gradient"/><linearGradient id="linear-gradient-8" x1="49.51" y1="142.13" x2="92.06" y2="142.13" xlink:href="#linear-gradient"/><linearGradient id="linear-gradient-9" x1="106.74" y1="68.85" x2="158.12" y2="68.85" xlink:href="#linear-gradient"/><linearGradient id="linear-gradient-10" x1="59.81" y1="71.98" x2="85.06" y2="102.78" xlink:href="#linear-gradient-5"/><linearGradient id="linear-gradient-11" x1="119.47" y1="95.89" x2="134.97" y2="114.17" xlink:href="#linear-gradient-5"/><linearGradient id="linear-gradient-12" x1="46.86" y1="148.13" x2="76.51" y2="148.13" gradientTransform="translate(83.51 -10.84) rotate(30.43)" xlink:href="#linear-gradient-5"/><linearGradient id="linear-gradient-13" x1="148.47" y1="60.52" x2="158.12" y2="60.52" xlink:href="#linear-gradient"/><clipPath id="clip-path"><path class="cls-1" d="M158.28,61.42a84.91,84.91,0,0,0-9.66,2.1,81.71,81.71,0,0,0-31,16.65c-6.82-1.44-10.76-2.32-10.76-2.32,1.87-2-1-43.78,1.23-45.47C119,24.29,115.55,26,125.68,24l29-3C159.72,23,158.28,61.42,158.28,61.42Z"/></clipPath></defs><title>piggy-bank-01</title><polyline class="cls-1" points="-756.43 9.14 -948.02 -1249.44 1054.87 -1249.44 1246.46 9.14"/><ellipse class="cls-2" cx="138.85" cy="150.32" rx="82.56" ry="42.59" transform="translate(-55.22 85.42) rotate(-28.78)"/><path class="cls-3" d="M198.94,83.07h-.39a2,2,0,1,1,.19-4.08c1.9.09,4.21-1.17,6.7-3.64l.13-.12c-3.77-2.56-5.67-5.59-5.52-8.8A6.63,6.63,0,0,1,204,60.37a7.83,7.83,0,0,1,8,1.19,7.28,7.28,0,0,1,2.26,7.59A13.08,13.08,0,0,1,213,72.36a9.25,9.25,0,0,0,2.86-2.3A4.62,4.62,0,0,0,217,66.5a2,2,0,0,1,4.07-.44A8.68,8.68,0,0,1,219,72.68c-2.69,3.23-6.13,4.72-9.39,4.24-.43.46-.85.9-1.27,1.31C205.1,81.44,201.94,83.07,198.94,83.07Zm8-19.22a3.37,3.37,0,0,0-1.31.26,2.6,2.6,0,0,0-1.5,2.5c-.11,2.27,2.16,4.24,4.15,5.51a11.47,11.47,0,0,0,2-3.93,3.26,3.26,0,0,0-.9-3.49A3.86,3.86,0,0,0,207,63.85Z"/><path class="cls-4" d="M145,171.83l-7.86,21.78a7.79,7.79,0,0,1-3.95,4.51c-5.52,3.17-14.49,3.16-20,0-2.32-1.34-3.68-3-4.07-4.74h0l-6.34-21.14L137.8,163Z"/><path class="cls-5" d="M95.07,146.44l-7.3,20.23a7.28,7.28,0,0,1-3.67,4.18c-5.12,3-13.45,2.93-18.6,0a7.19,7.19,0,0,1-3.77-4.4h0l-5.88-19.62,32.57-8.58Z"/><path class="cls-6" d="M210.4,113.41l-9.71,40.15a7.24,7.24,0,0,1-3.67,4.18c-5.12,2.95-13.45,2.93-18.6,0a7.22,7.22,0,0,1-3.77-4.41h0l-5.88-19.63,32.58-8.58Z"/><path class="cls-7" d="M208.92,85.65c11.64,30-12.54,67.26-54,83.29s-83.34,2.66-95-27.31,11.36-65.19,52.83-81.22S197.28,55.68,208.92,85.65Z"/><path class="cls-8" d="M87.66,88.42C81.71,74.5,70.26,59,65.07,65c-6.28,7.18-.75,26.47.75,31.31A20.57,20.57,0,0,1,83,87.92c.78,0,3.54,3.07,3.54,3.07S87.23,89.35,87.66,88.42Z"/><path class="cls-9" d="M105.17,96.76c3.56-4,10.92-10.44,15.7-12.93,8.25-4.29,11.51-3.2,13.45,6.88,1.58,8.2-.62,18.1-3.14,26.12-.16.52-1,2.79-1,2.79L126.42,123s1.26-9,.65-10.06C121.17,102.84,113.11,99.89,105.17,96.76Z"/><path class="cls-10" d="M92.06,148.45c0-10.13-7.17-22.46-16-27.55-4.49-2.59-8.55-2.81-11.46-1.07l0,0-.36.28a7.57,7.57,0,0,0-.63.49L49.51,131.4l6.66,8.52,16.89,25.63,12.31-6.06a7.74,7.74,0,0,0,3-1.5l.08,0v0C90.71,156.07,92.06,152.82,92.06,148.45Z"/><path class="cls-11" d="M158.12,61.42a85.45,85.45,0,0,0-9.65,2.1,81.64,81.64,0,0,0-31,16.65c-6.83-1.44-10.76-2.32-10.76-2.32,10.82-11.52,29.48-17.92,41.73-20.32h0C153.57,59.44,158.12,61.42,158.12,61.42Z"/><path class="cls-12" d="M86.51,91c-6-13.92-17.34-30.2-22.45-24.19s.26,26.72,1.76,31.56C69.17,93.43,76,88.84,86.51,91Z"/><path class="cls-13" d="M104.51,97.33A44.61,44.61,0,0,1,117.1,87.27c8.25-4.3,11.51-3.2,13.45,6.87,1.58,8.21-.62,18.1-3.14,26.13-.17.52-1.11,2.36-.93,2.82C120.54,107.42,114,101.07,104.51,97.33Z"/><ellipse class="cls-14" cx="61.68" cy="148.13" rx="12.06" ry="20.86" transform="translate(-66.52 51.64) rotate(-30.43)"/><ellipse class="cls-15" cx="54.18" cy="144.64" rx="2.92" ry="5.05" transform="translate(-65.79 47.36) rotate(-30.43)"/><ellipse class="cls-15" cx="66.36" cy="151.71" rx="2.92" ry="5.05" transform="translate(-67.69 54.5) rotate(-30.43)"/><ellipse class="cls-15" cx="98.34" cy="123.02" rx="2.92" ry="5.05" transform="translate(-48.76 66.74) rotate(-30.43)"/><ellipse class="cls-15" cx="71.67" cy="109.2" rx="2.92" ry="5.05" transform="translate(-45.43 51.33) rotate(-30.43)"/><path class="cls-16" d="M158.12,61.42a85.45,85.45,0,0,0-9.65,2.1v-6h0C153.57,59.44,158.12,61.42,158.12,61.42Z"/><g class="cls-17"><g class="cls-18"><path class="cls-19" d="M151.67,45.43c0,10.56-7.42,23.43-16.63,28.73-6,3.48-11.33,2.85-14.28-1a13.91,13.91,0,0,1-2.46-8.55c0-10.57,7.41-23.43,16.63-28.74,5.31-3.06,10-2.94,13.11-.26C150.3,37.61,151.65,41,151.67,45.43Z"/><path class="cls-20" d="M150.5,44.19c0,10.57-7.41,23.43-16.63,28.74-5.3,3-10,2.94-13.11.27a13.91,13.91,0,0,1-2.46-8.55c0-10.57,7.41-23.43,16.63-28.74,5.31-3.06,10-2.94,13.11-.26C149.6,37.65,150.49,40.55,150.5,44.19Z"/><path class="cls-21" d="M146.8,34.75l-3.39-2c-3-1.76-7.23-1.51-11.87,1.16l3.39,2C139.56,33.24,143.76,33,146.8,34.75Z"/><path class="cls-20" d="M150.18,29h0l-.26-.14-.25-.13s0,0,0,0l-.23-.11,0,0-.26-.11-.27-.12-.28-.1-.6-.2-.2-.06-.11,0-.25-.06h0l-.28-.07c-.23-.05-.47-.09-.7-.12l-.31,0-.31,0-.21,0H144.4a15.74,15.74,0,0,0-3.84.55,22.43,22.43,0,0,0-4.74,1.88l-.91.51-3.39-2,.76-.42A23,23,0,0,1,137,26.14a15.8,15.8,0,0,1,3.66-.58A11.26,11.26,0,0,1,146.79,27Z"/><path class="cls-21" d="M119.78,73.36l3.38,2c-3-1.73-4.85-5.43-4.86-10.67,0-10.57,7.41-23.43,16.63-28.74l-3.39-2c-9.21,5.3-16.66,18.17-16.63,28.73C114.93,67.93,116.78,71.62,119.78,73.36Z"/><path class="cls-21" d="M146.38,27.65c-5.44-.86-11.47,1.91-16.86,6.7C119.8,43,112.15,58.12,113.7,70.29c0,0,.06.51.06.52,1.54,11.59,11.3,15,22.08,8.35,11.48-7.09,20.63-23.2,20.59-36.48C156.4,32.41,151.14,28.32,146.38,27.65ZM135,74.16c-9.22,5.31-16.71,1-16.74-9.51,0-10.84,7.85-24.31,17.7-29.32,8.72-4.38,15.64,0,15.67,10.1C151.7,56.09,144.15,68.93,135,74.16Z"/><path class="cls-20" d="M134.91,30.45a33.21,33.21,0,0,0-5.36,3.86c-.3.26-.59.52-.89.8a45.45,45.45,0,0,0-4,4.2c-.71.86-1.41,1.75-2.07,2.67l-.31.43c-.11.17-.23.33-.34.49-5.15,7.46-8.46,16.49-8.44,24.49,0,6.75,2.41,11.5,6.26,13.73l-3.39-2c-3.85-2.24-6.24-7-6.26-13.73,0-8.06,3.34-17.16,8.55-24.65l.37-.53.31-.42c.72-1,1.49-2,2.28-2.89a42.09,42.09,0,0,1,3.5-3.67c.31-.3.63-.58.95-.86a34.15,34.15,0,0,1,5.42-3.93Z"/><path class="cls-19" d="M119.79,81.12l-3.39-2c-3.85-2.24-6.24-7-6.26-13.73,0-.31,0-.63,0-1l3.42,1.14c0,.59,0,1.19,0,1.77C113.55,74.14,115.94,78.89,119.79,81.12Z"/></g><g class="cls-18"><path class="cls-19" d="M137,67.27l-2.43-1.41V62.19L137,63.6Z"/><path class="cls-19" d="M138.1,53.39l2.44,1.41a1.23,1.23,0,0,1,.49,1.14,3.88,3.88,0,0,1-1.09,2.55l-2.44-1.41a3.85,3.85,0,0,0,1.1-2.55A1.22,1.22,0,0,0,138.1,53.39Z"/><path class="cls-19" d="M141.67,49.7l2.43,1.41a2.15,2.15,0,0,0-1.5-.14l-.46.1-2.43-1.41.46-.1A2.16,2.16,0,0,1,141.67,49.7Z"/><path class="cls-19" d="M133.44,69.34,131,67.93V64.16l2.43,1.41Z"/><path class="cls-19" d="M135.47,61.7,133,60.29l.88-.5a15,15,0,0,0,3.28-2.39c.11-.1.2-.21.3-.32l2.44,1.41-.3.32a15.31,15.31,0,0,1-3.29,2.39C136.06,61.37,135.77,61.54,135.47,61.7Z"/><path class="cls-19" d="M129.42,67.88,127,66.47c.13-1,.25-2,.38-2.93L129.81,65C129.68,65.92,129.55,66.87,129.42,67.88Z"/><path class="cls-19" d="M137.19,46.9l2.43,1.42a1.17,1.17,0,0,1,.46,1.11,3.54,3.54,0,0,1-1,2.34,10.76,10.76,0,0,1-2.62,2l-.38.22-.64.36L133,53l.63-.36.39-.23a10.71,10.71,0,0,0,2.62-2,3.56,3.56,0,0,0,1-2.34A1.23,1.23,0,0,0,137.19,46.9Z"/><path class="cls-19" d="M140.47,43.11l2.43,1.41a1.85,1.85,0,0,0-1.11-.2,6.06,6.06,0,0,0-1.28.26c-.51.16-1,.38-1.58.59l-2.44-1.41c.55-.21,1.08-.43,1.59-.59a6.71,6.71,0,0,1,1.27-.27A2,2,0,0,1,140.47,43.11Z"/><path class="cls-19" d="M135.33,47.16l-2.43-1.41,1.6-.92,2.44,1.41Z"/><path class="cls-19" d="M129.25,50.75l2.44,1.41a.82.82,0,0,1,.28.74q0,4.88,0,9.77a1.55,1.55,0,0,1-.83,1.48l-.51.31-.85.49-2.44-1.41.85-.49.52-.31a1.56,1.56,0,0,0,.83-1.48l0-9.78A.79.79,0,0,0,129.25,50.75Z"/><path class="cls-19" d="M136.93,42.65l-2.44-1.41,2-1.15,2.44,1.41Z"/><path class="cls-19" d="M136.94,46.24l-2.44-1.41V41.24l2.44,1.41Z"/><path class="cls-19" d="M133.37,48.42,130.94,47V43.28l2.43,1.41Z"/><path class="cls-19" d="M133.36,44.69l-2.43-1.41,2-1.13,2.43,1.41Z"/><path class="cls-19" d="M129.4,53.14,127,51.73V49.3l2.43,1.41Z"/><path class="cls-21" d="M145,52.9a8.48,8.48,0,0,1-2.67,6.9,23.25,23.25,0,0,1-2,1.67c-.43.34-.86.61-1.32.93v3.74l-2,1.13V63.6l-1.61.92V68.2l-2,1.14V65.57l-4,2.31c.13-1,.26-2,.39-2.93l.85-.49.51-.31a1.55,1.55,0,0,0,.83-1.48q0-4.89,0-9.77c0-.74-.39-1-1-.65l-.58.33-1,.56V50.71l4-2.29V44.69l2-1.13v3.6l1.61-.92V42.65l2-1.15v3.67c.55-.21,1.07-.43,1.58-.59a6.06,6.06,0,0,1,1.28-.26c1.28-.11,2,.67,2,2.23a6.25,6.25,0,0,1-1.51,4.3l-.15.22.46-.1C144,50.69,144.84,51.26,145,52.9Zm-5,5.59A3.88,3.88,0,0,0,141,55.94c0-.91-.43-1.31-1.15-1.26a7,7,0,0,0-2.94,1.12l-1.48.87v5c.3-.16.59-.33.88-.5a15.31,15.31,0,0,0,3.29-2.39l.3-.32m-4.51-8.66V54.4l.64-.36.38-.22a10.76,10.76,0,0,0,2.62-2,3.54,3.54,0,0,0,1-2.34c0-.85-.35-1.26-1-1.23a5.67,5.67,0,0,0-2.4.89c-.41.23-.82.49-1.24.74"/><path class="cls-19" d="M129.39,50.71,127,49.3l4-2.29,2.43,1.41Z"/></g><path class="cls-22" d="M117.07,51.69l-.45,1.05"/><path class="cls-22" d="M119.39,47.08c-.69,1.21-1.32,2.45-1.91,3.7"/><path class="cls-23" d="M120.75,44.8l-.18.29"/><path class="cls-23" d="M128.6,35.2a49.37,49.37,0,0,0-7.53,9.12"/><path class="cls-23" d="M144.33,27.49h-.5"/><path class="cls-23" d="M130,33.91l-.26.22"/><path class="cls-23" d="M142.24,27.65c-3.92.59-8,2.73-11.78,5.89"/><path class="cls-23" d="M115.38,76.32a13.42,13.42,0,0,0,1,1.61"/><path class="cls-23" d="M116.62,52.74c-2.43,5.87-3.63,12-2.92,17.55,0,0,.06.51.06.52.08.56.17,1.1.28,1.62"/><path class="cls-24" d="M121.43,37.19l2.3,1.49a1.06,1.06,0,0,1,.26,1.54l-1,1.33a.6.6,0,0,1-.8.13l-2.79-1.85Z"/><path class="cls-24" d="M129.55,34.31l-.48.42a.79.79,0,0,1-.9.12l-3-1.58c.31-.3.63-.58.95-.86Z"/><path class="cls-24" d="M144.4,27.51a15.11,15.11,0,0,0-3.25.4,1.64,1.64,0,0,1-1.15-.15l-3-1.62a15.8,15.8,0,0,1,3.66-.58Z"/><path class="cls-24" d="M122.09,42.73l-.12.17-3.28-2.12.37-.53,2.93,2A.37.37,0,0,1,122.09,42.73Z"/><path class="cls-25" d="M129.69,39.9a8.47,8.47,0,0,0-5.42,5.51.68.68,0,0,1-1.26.08,8.87,8.87,0,0,0-5.55-5.25.67.67,0,0,1,0-1.25c2.79-1.2,4-2.86,5.09-5.69a.68.68,0,0,1,1.26,0,9.62,9.62,0,0,0,5.9,5.39A.68.68,0,0,1,129.69,39.9Z"/><path class="cls-25" d="M132.68,28.93a3.85,3.85,0,0,0-2.47,2.51.31.31,0,0,1-.58,0,4,4,0,0,0-2.53-2.39.31.31,0,0,1,0-.57,4,4,0,0,0,2.32-2.6.31.31,0,0,1,.57,0,4.42,4.42,0,0,0,2.7,2.46A.31.31,0,0,1,132.68,28.93Z"/></g></svg>