<svg id="Layer_1" data-name="Layer 1" xmlns="http://www.w3.org/2000/svg" xmlns:xlink="http://www.w3.org/1999/xlink" viewBox="0 0 326.9 288.23"><defs><style>.cls-1,.cls-22,.cls-23{fill:none;}.cls-2{fill:#000014;opacity:0.1;}.cls-3{fill:url(#linear-gradient);}.cls-4{fill:url(#linear-gradient-2);}.cls-5{fill:url(#linear-gradient-3);}.cls-6{fill:url(#linear-gradient-4);}.cls-7{fill:url(#linear-gradient-5);}.cls-8{fill:url(#linear-gradient-6);}.cls-9{fill:url(#linear-gradient-7);}.cls-10{fill:url(#linear-gradient-8);}.cls-11{fill:url(#linear-gradient-9);}.cls-12{fill:url(#linear-gradient-10);}.cls-13{fill:url(#linear-gradient-11);}.cls-14{fill:url(#linear-gradient-12);}.cls-15{fill:#421580;}.cls-16{fill:url(#linear-gradient-13);}.cls-17{clip-path:url(#clip-path);}.cls-18{isolation:isolate;}.cls-19{fill:#eda700;}.cls-20{fill:#ffb80d;}.cls-21{fill:#ffcc57;}.cls-22,.cls-23{stroke:#ffe3a3;stroke-linecap:round;stroke-width:0.41px;}.cls-22{stroke-linejoin:round;}.cls-23{stroke-miterlimit:10;}.cls-24,.cls-25{fill:#fff;}.cls-24{opacity:0.4;}</style><linearGradient id="linear-gradient" x1="241.89" y1="94.14" x2="269.93" y2="94.14" gradientUnits="userSpaceOnUse"><stop offset="0" stop-color="#d47afe"/><stop offset="1" stop-color="#fb83fb"/></linearGradient><linearGradient id="linear-gradient-2" x1="134.48" y1="226.43" x2="182.81" y2="226.43" xlink:href="#linear-gradient"/><linearGradient id="linear-gradient-3" x1="80.86" y1="195.13" x2="125.74" y2="195.13" xlink:href="#linear-gradient"/><linearGradient id="linear-gradient-4" x1="210.04" y1="172.4" x2="257.67" y2="172.4" xlink:href="#linear-gradient"/><linearGradient id="linear-gradient-5" x1="82.09" y1="145.75" x2="259.33" y2="145.75" gradientUnits="userSpaceOnUse"><stop offset="0" stop-color="#fed0fc"/><stop offset="1" stop-color="#f199fb"/></linearGradient><linearGradient id="linear-gradient-6" x1="88.06" y1="104.39" x2="117.27" y2="104.39" xlink:href="#linear-gradient"/><linearGradient id="linear-gradient-7" x1="137.29" y1="131.07" x2="171.25" y2="131.07" xlink:href="#linear-gradient"/><linearGradient id="linear-gradient-8" x1="73.62" y1="178.94" x2="122.29" y2="178.94" xlink:href="#linear-gradient"/><linearGradient id="linear-gradient-9" x1="139.09" y1="91.05" x2="197.87" y2="91.05" xlink:href="#linear-gradient"/><linearGradient id="linear-gradient-10" x1="84.93" y1="94.94" x2="114.62" y2="131.17" xlink:href="#linear-gradient-5"/><linearGradient id="linear-gradient-11" x1="153.57" y1="123.8" x2="171.9" y2="145.41" xlink:href="#linear-gradient-5"/><linearGradient id="linear-gradient-12" x1="70.59" y1="186.13" x2="104.51" y2="186.13" gradientTransform="translate(98.19 -19.29) rotate(28.16)" xlink:href="#linear-gradient-5"/><linearGradient id="linear-gradient-13" x1="186.82" y1="81.07" x2="197.87" y2="81.07" xlink:href="#linear-gradient"/><clipPath id="clip-path"><path class="cls-1" d="M198.05,82.15a90.64,90.64,0,0,0-46.48,22.48c-7.81-1.73-12.31-2.78-12.31-2.78,2.15-2.39-1.19-52.5,1.4-54.53,12.41-9.7,8.51-7.66,20.1-10l33.15-3.56C199.7,36,198.05,82.15,198.05,82.15Z"/></clipPath></defs><title>piggy-bank</title><g id="_13_Bitcoin_Gain" data-name="13 Bitcoin Gain"><polyline class="cls-1" points="-718.07 97.71 -909.65 -1221.69 1093.24 -1221.69 1284.83 97.71"/><ellipse class="cls-2" cx="175.82" cy="188.76" rx="95.56" ry="50.48" transform="matrix(0.86, -0.51, 0.51, 0.86, -71.88, 116.74)"/><path class="cls-3" d="M244.56,108.11h-.45a2.45,2.45,0,0,1,.23-4.89c2.17.1,4.82-1.4,7.66-4.37l.14-.15c-4.3-3.07-6.48-6.7-6.31-10.55a8,8,0,0,1,4.52-7.25,8.65,8.65,0,0,1,9.15,1.43,9,9,0,0,1,2.58,9.1,16.66,16.66,0,0,1-1.44,3.85,10.64,10.64,0,0,0,3.26-2.76,5.68,5.68,0,0,0,1.32-4.27,2.42,2.42,0,0,1,2.07-2.7,2.37,2.37,0,0,1,2.58,2.17,10.75,10.75,0,0,1-2.37,7.94c-3.08,3.88-7,5.66-10.74,5.09-.49.55-1,1.08-1.45,1.57C251.61,106.16,248,108.11,244.56,108.11Zm9.17-23a3.6,3.6,0,0,0-1.5.31,3.18,3.18,0,0,0-1.72,3c-.12,2.72,2.48,5.07,4.75,6.6a14,14,0,0,0,2.27-4.71,4,4,0,0,0-1-4.19A4.24,4.24,0,0,0,253.73,85.06Z"/><path class="cls-4" d="M182.81,214.56l-9,26.12a9.23,9.23,0,0,1-4.52,5.4c-6.31,3.81-16.57,3.79-22.92,0-2.65-1.6-4.2-3.61-4.64-5.69h0L134.48,215l40.14-11.07Z"/><path class="cls-5" d="M125.74,184.11l-8.35,24.26a8.58,8.58,0,0,1-4.2,5c-5.86,3.54-15.39,3.52-21.28,0-2.46-1.49-3.9-3.35-4.31-5.28h0l-6.73-23.53,37.26-10.29Z"/><path class="cls-6" d="M257.67,144.5l-11.1,48.15a8.54,8.54,0,0,1-4.2,5c-5.86,3.54-15.39,3.52-21.28,0-2.46-1.49-3.9-3.35-4.31-5.28h0L210,168.81l37.27-10.29Z"/><path class="cls-7" d="M256,111.21c13.31,35.94-14.35,80.66-61.79,99.89s-95.35,3.19-108.66-32.76,13-78.18,60.44-97.41S242.67,75.26,256,111.21Z"/><path class="cls-8" d="M117.27,114.53c-6.82-16.7-19.91-35.26-25.85-28.14-7.18,8.62-.86,31.75.86,37.56a23.2,23.2,0,0,1,19.62-10c.89,0,4,3.68,4,3.68S116.77,115.65,117.27,114.53Z"/><path class="cls-9" d="M137.29,124.53c4.07-4.81,12.5-12.52,18-15.5,9.44-5.15,13.17-3.84,15.39,8.24,1.81,9.84-.7,21.71-3.59,31.33-.19.63-1.19,3.35-1.19,3.35l-4.26,4s1.44-10.82.74-12.06C155.6,131.83,146.38,128.28,137.29,124.53Z"/><path class="cls-10" d="M122.29,186.52c0-12.14-8.2-26.94-18.31-33-5.14-3.11-9.78-3.37-13.1-1.29l0,0-.41.34a7.94,7.94,0,0,0-.72.58l-16.09,13,7.62,10.22L100.57,207l14.07-7.27a8.46,8.46,0,0,0,3.48-1.8l.09,0v0C120.76,195.65,122.29,191.76,122.29,186.52Z"/><path class="cls-11" d="M197.87,82.15a90.64,90.64,0,0,0-46.48,22.48c-7.8-1.73-12.3-2.78-12.3-2.78C151.47,88,172.81,80.36,186.82,77.48h.06C192.66,79.78,197.87,82.15,197.87,82.15Z"/><path class="cls-12" d="M115.94,117.61c-6.81-16.7-19.83-36.22-25.67-29s.29,32,2,37.85C96.11,120.54,103.86,115,115.94,117.61Z"/><path class="cls-13" d="M136.54,125.21a51.83,51.83,0,0,1,14.4-12.06c9.44-5.15,13.16-3.84,15.39,8.24,1.81,9.84-.71,21.71-3.6,31.33-.18.63-1.26,2.83-1.06,3.39C154.88,137.32,147.4,129.7,136.54,125.21Z"/><ellipse class="cls-14" cx="87.55" cy="186.13" rx="13.95" ry="24.74" transform="translate(-77.47 63.34) rotate(-28.16)"/><ellipse class="cls-15" cx="78.96" cy="181.95" rx="3.38" ry="5.99" transform="translate(-76.52 58.79) rotate(-28.16)"/><ellipse class="cls-15" cx="92.9" cy="190.42" rx="3.38" ry="5.99" transform="translate(-78.86 66.37) rotate(-28.16)"/><ellipse class="cls-15" cx="129.48" cy="156.02" rx="3.38" ry="5.99" transform="translate(-58.3 79.56) rotate(-28.16)"/><ellipse class="cls-15" cx="98.97" cy="139.45" rx="3.38" ry="5.99" transform="translate(-54.09 63.2) rotate(-28.16)"/><path class="cls-16" d="M197.87,82.15a91.91,91.91,0,0,0-11.05,2.52V77.48h.06C192.66,79.78,197.87,82.15,197.87,82.15Z"/><g class="cls-17"><g class="cls-18"><path class="cls-19" d="M190.48,63c0,12.67-8.48,28.1-19,34.46-6.9,4.17-13,3.42-16.33-1.16-1.78-2.41-2.81-5.88-2.82-10.25,0-12.67,8.48-28.1,19-34.47,6.07-3.66,11.49-3.52,15-.31C188.92,53.59,190.47,57.6,190.48,63Z"/><path class="cls-20" d="M189.15,61.48c0,12.67-8.48,28.1-19,34.47-6.07,3.66-11.49,3.52-15,.32-1.78-2.41-2.81-5.88-2.82-10.25,0-12.67,8.48-28.1,19-34.47,6.07-3.66,11.49-3.52,15-.31C188.12,53.65,189.14,57.12,189.15,61.48Z"/><path class="cls-21" d="M184.92,50.16,181,47.81c-3.47-2.11-8.28-1.81-13.58,1.39l3.88,2.36C176.64,48.35,181.45,48.05,184.92,50.16Z"/><path class="cls-20" d="M188.78,43.21h0l-.3-.18-.28-.15,0,0-.26-.13-.06,0-.29-.14-.32-.14-.32-.13-.68-.23L186,42l-.13,0-.29-.08h0l-.31-.07a7.25,7.25,0,0,0-.81-.16l-.34,0-.36,0-.24,0h-.09l-.27,0h-.26c-.23,0-.46,0-.7,0a16.68,16.68,0,0,0-4.39.65,24.67,24.67,0,0,0-5.42,2.26c-.35.19-.69.39-1,.6l-3.88-2.35c.29-.18.58-.34.86-.5a25.27,25.27,0,0,1,5.39-2.31,17.39,17.39,0,0,1,4.19-.7,12.38,12.38,0,0,1,7,1.72Z"/><path class="cls-21" d="M154,96.47l3.88,2.35c-3.43-2.08-5.55-6.51-5.57-12.8,0-12.67,8.48-28.1,19-34.46l-3.88-2.36c-10.54,6.37-19.06,21.79-19,34.46C148.45,90,150.58,94.38,154,96.47Z"/><path class="cls-21" d="M184.43,41.64c-6.21-1-13.11,2.3-19.29,8C154,60,145.27,78.19,147.05,92.79c0,0,.07.61.07.62,1.77,13.9,12.93,18,25.26,10,13.13-8.5,23.6-27.82,23.56-43.75C195.9,47.36,189.88,42.45,184.43,41.64Zm-13,55.79c-10.54,6.37-19.11,1.26-19.15-11.41,0-13,9-29.16,20.26-35.16,10-5.26,17.88-.06,17.91,12.11C190.52,75.75,181.88,91.16,171.46,97.43Z"/><path class="cls-20" d="M171.32,45a39.16,39.16,0,0,0-6.13,4.63c-.34.32-.68.63-1,1a51.25,51.25,0,0,0-4.54,5c-.82,1-1.61,2.1-2.37,3.2l-.36.52-.39.59c-5.89,9-9.68,19.78-9.65,29.37,0,8.09,2.75,13.79,7.16,16.46l-3.88-2.35C145.74,100.74,143,95.05,143,87c0-9.67,3.82-20.58,9.78-29.56.14-.22.28-.43.43-.64l.34-.5q1.26-1.8,2.61-3.47a53.06,53.06,0,0,1,4-4.41l1.08-1a39.48,39.48,0,0,1,6.21-4.7Z"/><path class="cls-19" d="M154,105.77l-3.88-2.35C145.74,100.74,143,95.05,143,87c0-.38,0-.76,0-1.14l3.91,1.36c0,.71,0,1.43,0,2.13C146.88,97.4,149.61,103.1,154,105.77Z"/></g><g class="cls-18"><path class="cls-19" d="M173.74,89.16,171,87.47v-4.4l2.78,1.69Z"/><path class="cls-19" d="M175,72.52l2.78,1.69a1.51,1.51,0,0,1,.57,1.37,4.74,4.74,0,0,1-1.25,3l-2.79-1.69a4.74,4.74,0,0,0,1.26-3A1.51,1.51,0,0,0,175,72.52Z"/><path class="cls-19" d="M179.05,68.09l2.78,1.69a2.36,2.36,0,0,0-1.72-.16l-.52.11L176.81,68l.52-.11A2.31,2.31,0,0,1,179.05,68.09Z"/><path class="cls-19" d="M169.64,91.65,166.85,90V85.44l2.78,1.69Z"/><path class="cls-19" d="M172,82.49l-2.79-1.69c.34-.2.68-.4,1-.61a17.5,17.5,0,0,0,3.76-2.86,4.32,4.32,0,0,0,.34-.39l2.79,1.69c-.12.14-.23.27-.35.39A17.85,17.85,0,0,1,173,81.89Z"/><path class="cls-19" d="M165,89.9l-2.79-1.69c.15-1.22.3-2.35.44-3.52l2.79,1.69C165.33,87.55,165.19,88.68,165,89.9Z"/><path class="cls-19" d="M173.92,64.74l2.79,1.69a1.46,1.46,0,0,1,.52,1.34,4.39,4.39,0,0,1-1.14,2.81,12.53,12.53,0,0,1-3,2.45l-.44.27-.73.43L169.14,72l.73-.43.43-.27a12.16,12.16,0,0,0,3-2.45,4.35,4.35,0,0,0,1.15-2.81C174.44,65.39,174.27,65,173.92,64.74Z"/><path class="cls-19" d="M177.68,60.19l2.78,1.69a2.16,2.16,0,0,0-1.28-.25,6.87,6.87,0,0,0-1.46.32c-.58.19-1.18.46-1.81.71L173.13,61c.62-.25,1.22-.52,1.81-.71a6.61,6.61,0,0,1,1.46-.32A2.08,2.08,0,0,1,177.68,60.19Z"/><path class="cls-19" d="M171.8,65.05,169,63.36l1.83-1.11,2.79,1.69Z"/><path class="cls-19" d="M164.84,69.36l2.79,1.69a1,1,0,0,1,.33.87l0,11.73a1.89,1.89,0,0,1-1,1.78c-.19.13-.39.25-.59.37l-1,.58-2.79-1.69,1-.58.59-.38a1.88,1.88,0,0,0,1-1.77q0-5.86,0-11.73C165.17,69.78,165.05,69.48,164.84,69.36Z"/><path class="cls-19" d="M173.62,59.63l-2.78-1.69,2.28-1.37,2.78,1.69Z"/><path class="cls-19" d="M173.64,63.94l-2.79-1.69V57.94l2.78,1.69Z"/><path class="cls-19" d="M169.56,66.56l-2.79-1.69V60.39l2.79,1.69Z"/><path class="cls-19" d="M169.55,62.08l-2.79-1.69L169,59l2.79,1.7Z"/><path class="cls-19" d="M165,72.21l-2.78-1.69V67.61l2.79,1.7Z"/><path class="cls-21" d="M182.81,71.93a10.48,10.48,0,0,1-3.06,8.28,29.7,29.7,0,0,1-2.26,2c-.48.41-1,.73-1.51,1.11v4.49l-2.25,1.35v-4.4l-1.84,1.11v4.41l-2.26,1.37,0-4.52L165,89.9c.15-1.22.29-2.35.44-3.52l1-.58c.2-.12.4-.24.59-.37a1.89,1.89,0,0,0,1-1.78l0-11.73c0-.88-.45-1.17-1.18-.76l-.66.38-1.11.67v-2.9l4.55-2.75V62.08l2.24-1.35v4.32l1.84-1.11,0-4.31,2.28-1.37v4.4c.63-.25,1.23-.52,1.81-.71a6.87,6.87,0,0,1,1.46-.32c1.47-.12,2.23.81,2.31,2.68a7.8,7.8,0,0,1-1.73,5.16c0,.06-.09.14-.17.26l.52-.11C181.71,69.28,182.67,70,182.81,71.93Zm-5.74,6.7a4.74,4.74,0,0,0,1.25-3c0-1.1-.49-1.57-1.32-1.52a8,8,0,0,0-3.37,1.34c-.56.34-1.12.71-1.69,1l0,6,1-.6A17.85,17.85,0,0,0,176.72,79c.12-.12.23-.25.35-.39m-5.16-10.38v5.48l.73-.43.44-.27a12.53,12.53,0,0,0,3-2.45,4.39,4.39,0,0,0,1.14-2.81c0-1-.4-1.51-1.16-1.48a6.35,6.35,0,0,0-2.74,1.06l-1.42.9"/><path class="cls-19" d="M165,69.31l-2.79-1.7,4.55-2.74,2.79,1.69Z"/></g><path class="cls-22" d="M150.91,70.48c-.18.42-.35.84-.52,1.26"/><path class="cls-22" d="M153.56,65q-1.17,2.17-2.18,4.44"/><path class="cls-23" d="M155.12,62.22l-.21.35"/><path class="cls-23" d="M164.09,50.7a59.52,59.52,0,0,0-8.61,10.94"/><path class="cls-23" d="M182.09,41.46h-.57"/><path class="cls-23" d="M165.73,49.16l-.29.26"/><path class="cls-23" d="M179.7,41.65c-4.49.71-9.13,3.28-13.47,7.07"/><path class="cls-23" d="M149,100a15.63,15.63,0,0,0,1.1,1.93"/><path class="cls-23" d="M150.39,71.74c-2.78,7-4.15,14.41-3.34,21.05,0,0,.07.61.07.62q.13,1,.33,2"/><path class="cls-24" d="M155.9,53.09l2.62,1.79a1.29,1.29,0,0,1,.3,1.84l-1.18,1.59a.65.65,0,0,1-.9.16l-3.21-2.21Z"/><path class="cls-24" d="M165.19,49.63l-.55.51a.88.88,0,0,1-1,.14l-3.45-1.9,1.08-1Z"/><path class="cls-24" d="M182.17,41.49a16.39,16.39,0,0,0-3.71.47,1.84,1.84,0,0,1-1.32-.18l-3.45-1.94a17.39,17.39,0,0,1,4.19-.7Z"/><path class="cls-24" d="M156.65,59.73c0,.07-.09.14-.14.21l-3.75-2.54c.14-.22.28-.43.43-.64l3.35,2.34A.46.46,0,0,1,156.65,59.73Z"/><path class="cls-25" d="M165.34,56.33a10,10,0,0,0-6.2,6.62.76.76,0,0,1-1.44.1,10.34,10.34,0,0,0-6.35-6.3.82.82,0,0,1,0-1.5c3.2-1.44,4.55-3.44,5.83-6.83a.76.76,0,0,1,1.43-.06,11.25,11.25,0,0,0,6.75,6.47A.82.82,0,0,1,165.34,56.33Z"/><path class="cls-25" d="M168.77,43.18a4.53,4.53,0,0,0-2.83,3,.35.35,0,0,1-.66,0,4.69,4.69,0,0,0-2.89-2.87.37.37,0,0,1,0-.68A4.73,4.73,0,0,0,165,39.58a.35.35,0,0,1,.65,0,5.17,5.17,0,0,0,3.08,3A.37.37,0,0,1,168.77,43.18Z"/></g></g></svg>